Normalized EMG Linear Envelopes
nRows=21
nColumns=17

endheader
time	        VM	        VL	        RF	       GRA	        TA	   ADDLONG	   SEMIMEM	      BFLH	        GM	        GL	       TFL	   GLUTMAX	   GLUTMED	      PIRI	    OBTINT	        QF	
2.349	  0.016918	  0.004744	  0.031487	  0.252448	  0.072941	  0.044129	  0.251345	  0.183660	  0.185937	  0.081985	  0.025030	  0.055372	  0.328121	  0.233523	  1.426490	  0.130533	
2.3495	  0.016694	  0.004533	  0.030455	  0.253187	  0.072080	  0.044262	  0.254601	  0.185930	  0.187564	  0.082435	  0.024128	  0.055102	  0.325937	  0.233259	  1.425976	  0.131304	
2.35	  0.016483	  0.004329	  0.029445	  0.253947	  0.071231	  0.044408	  0.257858	  0.188199	  0.189202	  0.082873	  0.023245	  0.054837	  0.323711	  0.232970	  1.425262	  0.132078	
2.3505	  0.016287	  0.004133	  0.028458	  0.254727	  0.070395	  0.044565	  0.261117	  0.190466	  0.190850	  0.083297	  0.022382	  0.054577	  0.321444	  0.232656	  1.424349	  0.132856	
2.351	  0.016106	  0.003945	  0.027492	  0.255528	  0.069573	  0.044734	  0.264377	  0.192731	  0.192507	  0.083707	  0.021538	  0.054322	  0.319136	  0.232317	  1.423240	  0.133639	
2.3515	  0.015940	  0.003765	  0.026549	  0.256349	  0.068764	  0.044915	  0.267636	  0.194991	  0.194174	  0.084104	  0.020713	  0.054072	  0.316788	  0.231952	  1.421936	  0.134428	
2.352	  0.015789	  0.003593	  0.025627	  0.257190	  0.067969	  0.045108	  0.270895	  0.197247	  0.195850	  0.084485	  0.019907	  0.053829	  0.314401	  0.231561	  1.420440	  0.135223	
2.3525	  0.015654	  0.003429	  0.024727	  0.258051	  0.067188	  0.045312	  0.274152	  0.199498	  0.197535	  0.084852	  0.019120	  0.053593	  0.311976	  0.231144	  1.418753	  0.136025	
2.353	  0.015534	  0.003274	  0.023848	  0.258933	  0.066422	  0.045529	  0.277406	  0.201743	  0.199228	  0.085204	  0.018352	  0.053363	  0.309514	  0.230702	  1.416876	  0.136836	
2.3535	  0.015430	  0.003127	  0.022990	  0.259836	  0.065670	  0.045757	  0.280657	  0.203981	  0.200929	  0.085539	  0.017602	  0.053140	  0.307016	  0.230234	  1.414812	  0.137656	
2.354	  0.015342	  0.002990	  0.022154	  0.260759	  0.064933	  0.045996	  0.283903	  0.206213	  0.202637	  0.085859	  0.016871	  0.052924	  0.304484	  0.229742	  1.412562	  0.138487	
2.3545	  0.015271	  0.002861	  0.021338	  0.261703	  0.064212	  0.046247	  0.287145	  0.208437	  0.204353	  0.086163	  0.016158	  0.052716	  0.301917	  0.229225	  1.410128	  0.139329	
2.355	  0.015216	  0.002742	  0.020544	  0.262668	  0.063505	  0.046510	  0.290380	  0.210652	  0.206074	  0.086450	  0.015463	  0.052516	  0.299318	  0.228685	  1.407513	  0.140183	
2.3555	  0.015177	  0.002633	  0.019770	  0.263654	  0.062814	  0.046784	  0.293607	  0.212860	  0.207802	  0.086720	  0.014785	  0.052324	  0.296689	  0.228121	  1.404718	  0.141050	
2.356	  0.015156	  0.002533	  0.019016	  0.264662	  0.062139	  0.047070	  0.296826	  0.215058	  0.209534	  0.086974	  0.014125	  0.052141	  0.294029	  0.227534	  1.401745	  0.141931	
2.3565	  0.015152	  0.002443	  0.018283	  0.265692	  0.061480	  0.047367	  0.300034	  0.217248	  0.211272	  0.087210	  0.013483	  0.051966	  0.291342	  0.226925	  1.398597	  0.142828	
2.357	  0.015165	  0.002363	  0.017570	  0.266745	  0.060837	  0.047676	  0.303232	  0.219430	  0.213012	  0.087429	  0.012857	  0.051800	  0.288628	  0.226296	  1.395276	  0.143740	
2.3575	  0.015196	  0.002293	  0.016876	  0.267820	  0.060210	  0.047996	  0.306417	  0.221603	  0.214756	  0.087631	  0.012249	  0.051644	  0.285890	  0.225645	  1.391783	  0.144669	
2.358	  0.015245	  0.002234	  0.016203	  0.268920	  0.059600	  0.048327	  0.309590	  0.223768	  0.216503	  0.087815	  0.011658	  0.051497	  0.283128	  0.224975	  1.388123	  0.145615	
2.3585	  0.015312	  0.002186	  0.015548	  0.270044	  0.059006	  0.048670	  0.312748	  0.225924	  0.218251	  0.087981	  0.011083	  0.051360	  0.280345	  0.224286	  1.384298	  0.146580	
2.359	  0.015398	  0.002148	  0.014914	  0.271192	  0.058428	  0.049025	  0.315891	  0.228073	  0.220001	  0.088129	  0.010524	  0.051232	  0.277542	  0.223578	  1.380310	  0.147565	
